<svg xmlns="http://www.w3.org/2000/svg" viewBox="0 0 870.07 436.74"><defs><style>.cls-1{fill:#f27b93;}.cls-2{opacity:0.41;}.cls-3{fill:#fff;}.cls-4,.cls-5{fill:none;stroke:#fff;stroke-linecap:round;stroke-miterlimit:10;}.cls-4{stroke-width:3px;}.cls-5{stroke-width:10px;}</style></defs><title>Asset 7</title><g id="Layer_2" data-name="Layer 2"><g id="resume"><polygon class="cls-1" points="0 238.41 394.74 436.74 870.07 198.7 474.52 0 0 238.41"/><g class="cls-2"><path class="cls-3" d="M427.89,105.7l69.38,34.69a4.77,4.77,0,0,1,0,8.54l-69.38,34.69a4.79,4.79,0,0,1-4.27,0l-69.38-34.69a4.77,4.77,0,0,1,0-8.54l69.38-34.69A4.79,4.79,0,0,1,427.89,105.7Z"/><line class="cls-4" x1="513.82" y1="160.67" x2="641.91" y2="222.72"/><line class="cls-4" x1="485.8" y1="174.68" x2="613.89" y2="236.73"/><line class="cls-4" x1="455.78" y1="188.69" x2="583.87" y2="250.74"/><path class="cls-3" d="M241,195.36l73.38,36.7a3,3,0,0,1,0,5.33L241,274.09a3,3,0,0,1-2.67,0l-73.39-36.7a3,3,0,0,1,0-5.33l73.39-36.7A3,3,0,0,1,241,195.36Z"/><line class="cls-4" x1="327.69" y1="250.74" x2="455.78" y2="312.78"/><line class="cls-4" x1="299.67" y1="264.75" x2="427.76" y2="326.79"/><line class="cls-4" x1="269.65" y1="278.76" x2="397.74" y2="340.8"/><line class="cls-5" x1="507.82" y1="92.62" x2="665.93" y2="169.21"/><line class="cls-4" x1="325.69" y1="155.45" x2="552.36" y2="265.25"/><line class="cls-4" x1="295.66" y1="169.46" x2="522.34" y2="279.26"/><line class="cls-4" x1="267.64" y1="183.47" x2="494.32" y2="293.27"/></g></g></g></svg>