<?xml version="1.0" encoding="utf-8"?>
<!-- Generator: Adobe Illustrator 22.1.0, SVG Export Plug-In . SVG Version: 6.00 Build 0)  -->
<svg version="1.1" id="Layer_1" xmlns="http://www.w3.org/2000/svg" xmlns:xlink="http://www.w3.org/1999/xlink" x="0px" y="0px"
	 viewBox="0 0 1900 2500" style="enable-background:new 0 0 1900 2500;" xml:space="preserve">
<style type="text/css">
	.st0{opacity:0.2;fill:#3E688C;enable-background:new    ;}
	.st1{opacity:0.76;fill:#F27B93;enable-background:new    ;}
	.st2{opacity:0.6;fill:#3E688C;enable-background:new    ;}
	.st3{fill:#F27B93;}
	.st4{opacity:0.44;fill:#F27B93;enable-background:new    ;}
	.st5{fill:#3E688C;}
	.st6{opacity:0.44;fill:#3E688C;}
</style>
<title>Asset 9</title>
<g id="Layer_2_1_">
	<g id="Layer_10">
		<polygon class="st0" points="744.8,1385.3 1900,804.9 1900,884.3 823.9,1425 		"/>
		<polygon class="st0" points="0,1238.1 1900,283.5 1900,362.9 0,1317.5 		"/>
		<polygon class="st1" points="0,1640.7 784.7,1246.5 1179.8,1445 981.9,1544.5 1900,2005.7 1900,2087.3 864.4,1563.5 
			1056.7,1462.6 744.8,1305.9 0,1681.1 		"/>
		<polygon class="st2" points="1258.9,1405.3 1900,1727.4 1900,1083.2 		"/>
		<polygon class="st3" points="1100.1,1524.4 1913.9,1933.3 1900,1886.3 1219,1544.1 1900,1202 1900,1122.6 		"/>
		<polygon class="st4" points="744.8,1385.3 745.7,750.4 1053.1,905.4 1057.5,1542.4 		"/>
		<polygon class="st5" points="0,375.8 0,415.8 1495.3,1167.1 1298.1,1266.2 1140,1186.8 1298.1,1107.3 0,455.2 0,495.2 
			1219,1107.7 983,1226.2 1258.2,1365.6 1614.2,1186.8 		"/>
		<polygon class="st4" points="310.5,1643.6 468.6,1723 586.8,1663.6 428.7,1584.2 		"/>
		<path class="st4" d="M586.8,1504.7l-118.2,59.4l158.1,79.4l118.2-59.4L586.8,1504.7z M626,1603.8l-79-39.7l39.9-20l79,39.7
			L626,1603.8z"/>
		<polygon class="st4" points="626.6,1484.7 784.7,1564.1 823.9,1544.5 744.8,1504.8 784.7,1484.7 705.7,1445 		"/>
		<polygon class="st4" points="823.9,1385.6 744.8,1425.3 823.9,1465.1 863.1,1444.7 902.9,1464.7 863,1484.7 902.9,1504.8 
			982,1465.1 		"/>
		<polygon class="st5" points="508.9,830.3 547.8,849.9 547.8,889.7 587.5,909 587.7,869.9 626.6,889.4 625.9,1048 587.1,1028.4 
			587.1,949 509,909.8 		"/>
		<polygon class="st5" points="823.9,988.6 863,1008.3 863.1,1087.7 902.9,1107.7 902.9,1028.3 942.1,1047.9 942.1,1206.8 
			902.9,1187.1 902.9,1147.1 823.9,1107.3 		"/>
		<polygon class="st5" points="666.4,909.4 784,968.5 784,1127.4 665.8,1068 		"/>
		<polygon class="st4" points="1900,2500 1900,1727.4 1496,1524.4 0,2276 0,2500 		"/>
	</g>
</g>
<polygon class="st6" points="665.8,1306.2 1900,667.6 1900,0 0,0 0,971.7 "/>
</svg>
