<?xml version="1.0" encoding="utf-8"?>
<!-- Generator: Adobe Illustrator 22.1.0, SVG Export Plug-In . SVG Version: 6.00 Build 0)  -->
<svg version="1.1" id="Layer_1" xmlns="http://www.w3.org/2000/svg" xmlns:xlink="http://www.w3.org/1999/xlink" x="0px" y="0px"
	 viewBox="0 0 1440 4568" style="enable-background:new 0 0 1440 4568;" xml:space="preserve">
<style type="text/css">
	.st0{opacity:0.73;fill:#F27B93;enable-background:new    ;}
	.st1{opacity:0.61;fill:#F27B93;enable-background:new    ;}
	.st2{opacity:0.9;fill:#F27B93;enable-background:new    ;}
	.st3{opacity:0.64;fill:#3E688C;enable-background:new    ;}
	.st4{opacity:0.27;enable-background:new    ;}
	.st5{opacity:0.65;fill:#3E688C;enable-background:new    ;}
	.st6{fill:#3E688C;}
	.st7{opacity:0.34;fill:#F27B93;enable-background:new    ;}
	.st8{opacity:0.7;fill:#3E688C;enable-background:new    ;}
	.st9{opacity:0.8;fill:#3E688C;enable-background:new    ;}
	.st10{display:none;opacity:0.78;fill:#F27B93;enable-background:new    ;}
	.st11{opacity:0.6;fill:#F27B93;enable-background:new    ;}
	.st12{display:none;opacity:0.44;fill:#3E688C;enable-background:new    ;}
	.st13{opacity:0.51;fill:#F27B93;enable-background:new    ;}
	.st14{opacity:0.57;enable-background:new    ;}
	.st15{display:none;opacity:0.32;fill:#F4B8C6;enable-background:new    ;}
	.st16{opacity:0.55;fill:#3E688C;enable-background:new    ;}
	.st17{opacity:0.31;fill:#3E688C;enable-background:new    ;}
	.st18{opacity:0.44;enable-background:new    ;}
</style>
<polygon points="1440,0 0,2 0,4568 1440,4568 "/>
<polygon class="st0" points="805,3283 804.9,3042.4 0,2638.4 0,4082.4 1194,3485 "/>
<polyline class="st1" points="804.8,2926 805,3283 1440,3612.6 1440,3245.1 "/>
<polygon class="st2" points="1440,2408.5 1040.1,2607.4 1239.3,2707.5 804.8,2926 1440,3245.1 "/>
<polygon class="st3" points="1440,2805.1 1001.7,3025.3 1001.7,3261.8 1235,3142 1357,3204 1121,3323 1439.2,3484.3 1439.2,3613.3 
	883,3323.2 883.9,2964.4 1440,2685 "/>
<polygon class="st4" points="1002.5,3261.8 1235.8,3142 1357.8,3204 1121.8,3323 1440,3484.3 1440,3613.3 999.8,3384 "/>
<polygon class="st5" points="0,2638.4 804.9,3042.4 804.8,2926 844.8,2905.9 0,2481.6 "/>
<polygon class="st6" points="686.5,2826.4 923.8,2707 0,2243 0,2481.6 "/>
<polygon class="st7" points="674.8,953.8 950.5,1092.4 1440,846.5 1440,582.2 1440,569.2 "/>
<polygon class="st8" points="440,1546.2 285,1467.2 674,1272.2 836,1354.2 1035,1253.2 555,1012.2 477,1052.2 477,1172.2 0,1411.2 
	0,1770.7 "/>
<polygon class="st5" points="0,812.9 399,1013.2 833,794.2 0,378.7 "/>
<polygon class="st9" points="0,1213.2 283.2,1074.6 279.2,953.2 1439,370.2 1440,251.2 161.7,894.2 162,1012.2 0,1093.2 "/>
<polygon class="st10" points="0,1051.1 200.2,1151.7 1439,529.2 1439,450.2 200.2,1072.3 0,972.2 "/>
<polygon class="st11" points="1440,490.2 1441,569.2 478,1052.2 478,1172.2 0,1411.2 0,1332.7 398,1132.2 399,1013.2 "/>
<polygon class="st12" points="1440,687.2 477,1172.2 477,1052.6 1440,569.2 "/>
<polygon class="st13" points="437.3,1470 634.5,1569.1 872,1450.2 674.4,1350.9 "/>
<polygon class="st14" points="675,1072.4 555,1012.2 477,1052.2 478,1172.2 "/>
<polygon class="st15" points="399,1013.2 398.7,1052 1438.5,529.4 1438.5,490.4 "/>
<polygon class="st16" points="1346.1,893.2 1267.5,932.7 1267,1856.2 1347,1909.2 "/>
<polyline class="st17" points="1346,893.2 1441,845.2 1441,1970.2 1347,1909.2 "/>
<polygon class="st18" points="1346,616.3 674.8,953.8 792.8,1013.1 1440,687.2 1440,582.2 1440,569.2 "/>
</svg>
